<svg xmlns="http://www.w3.org/2000/svg" viewBox="0 0 407.82 120"><defs><style>.cls-1,.cls-2{fill:#678fc6;}.cls-2{font-size:60.57px;font-family:OpenSans, Open Sans;}</style></defs><title>Logo Horizontal</title><g id="Camada_2" data-name="Camada 2"><g id="Camada_1-2" data-name="Camada 1"><path class="cls-1" d="M22.57,103.94c1.22-2.06-6.13-7.61-5-9.4,16-26,20.65-25.07,34.21-10.16C66.24,100.32,63.34,46.7,85.08,46.7c15.21,0,22.62,22.7,25.69,36.34,1.32,5.85-7.2,12.14-7.2,12.14L74.05,114.86l-31.44-2.4Z"/><polygon class="cls-1" points="25.92 32.1 77.28 23.02 79.62 41.26 29.28 48.38 44.64 38.38 25.92 32.1"/><path class="cls-1" d="M60,0a60,60,0,1,0,60,60A60,60,0,0,0,60,0Zm0,110.77A50.77,50.77,0,1,1,110.77,60,50.77,50.77,0,0,1,60,110.77Z"/><polygon class="cls-1" points="79.62 51.98 75.49 18.86 79.62 18.86 84.37 51.02 79.62 51.98"/><text class="cls-2" transform="translate(147.73 90.99)">ClimbPro</text></g></g></svg>
