<svg xmlns="http://www.w3.org/2000/svg" viewBox="0 0 260.08 210.84"><defs><style>.cls-1,.cls-2{fill:#678fc6;}.cls-2{font-size:60.57px;font-family:OpenSans, Open Sans;}</style></defs><title>Logo Vertical</title><g id="Camada_2" data-name="Camada 2"><g id="Camada_1-2" data-name="Camada 1"><path class="cls-1" d="M92.62,103.94c1.21-2.06-6.14-7.61-5-9.4,16-26,20.65-25.07,34.21-10.16,14.49,15.94,11.59-37.68,33.33-37.68,15.21,0,22.62,22.7,25.69,36.34,1.32,5.85-7.2,12.14-7.2,12.14l-29.52,19.68-31.44-2.4Z"/><polygon class="cls-1" points="95.96 32.1 147.32 23.02 149.66 41.26 99.32 48.38 114.68 38.38 95.96 32.1"/><path class="cls-1" d="M130,0a60,60,0,1,0,60,60A60,60,0,0,0,130,0Zm0,110.77A50.77,50.77,0,1,1,180.81,60,50.77,50.77,0,0,1,130,110.77Z"/><polygon class="cls-1" points="149.66 51.98 145.53 18.86 149.66 18.86 154.41 51.02 149.66 51.98"/><text class="cls-2" transform="translate(0 194.43)">ClimbPro</text></g></g></svg>
